# xmcd
#
# Track frame offsets:
# 150
# 21725
# 32106
# 49383
# 69440
# 88237
# 101713
# 122949
# 141325
# 158202
# 174719
# 214756
#
# Disc length: 3095 seconds
#
# Revision: 0
# Processed by: cddbd v1.4PL0 Copyright (c) Steve Scherf et al.
# Submitted via: Axialis_AX_CDPlayer 2.6
#
DISCID=bb0c150c
DTITLE=Garth Brooks - Double Live [CD 2)
DYEAR=1900
DGENRE=
TTITLE0=Ain't gonna down
TTITLE1=Rodeo
TTITLE2=Peaches of Cheyenne
TTITLE3=Two Pina Coladaes
TTITLE4=Wild as the wind
TTITLE5=To make you feel my love
TTITLE6=That summer
TTITLE7=American honky-tonky bar assoziation
TTITLE8=If tomorrow never comes
TTITLE9=Fever
TTITLE10=Friends in low places
TTITLE11=Dance
EXTD=
EXTT0=
EXTT1=
EXTT2=
EXTT3=
EXTT4=
EXTT5=
EXTT6=
EXTT7=
EXTT8=
EXTT9=
EXTT10=
EXTT11=
PLAYORDER=
